{"title":"Mr.Popper's.Penguins.2011.HDRip.x264.AC3[MultiSub]-Psycho","uid":6715066,"size":1064286715,"categoryP":"video","categoryS":"movies","magnet":"?xt=urn:btih:3fff82c0c0f3e830004b9819a1987cc4529c0b95&amp;dn=Mr.Popper%5C%27s.Penguins.2011.HDRip.x264.AC3%5BMultiSub%5D-Psycho&amp;tr=udp%3A%2F%2Ftracker.openbittorrent.com%3A80&amp;tr=udp%3A%2F%2Fopen.demonii.com%3A1337&amp;tr=udp%3A%2F%2Ftracker.coppersurfer.tk%3A6969&amp;tr=udp%3A%2F%2Fexodus.desync.com%3A6969","seeders":0,"leechers":1,"uploader":"Francisco1206","files":-1,"time":1317539979,"description":"The life of a businessman begins to change after he inherits six penguins, and as he transforms his apartment into a winter wonderland, his professional side starts to unravel. \n\nIMDB rating: 5.8/10 (from 5,552 users)\n\nCAST:\n\nJim Carrey......................Mr. Popper\nCarla Gugino....................Amanda\nAngela Lansbury.................Mrs. Van Gundy\nOphelia Lovibond................Pippi\nMadeline Carroll................Janie\nClark Gregg.....................Nat Jones\nJeffrey Tambor..................Mr. Gremmins\nDavid Krumholtz.................Kent\nPhilip Baker Hall...............Franklin\nMaxwell Perry Cotton............Billy\nJames Tupper....................Rick\nDominic Chianese................Reader\nWilliam Charles Mitchell........Yates (as William C. Mitchell)\nKelli Barrett...................Tommy's Mom\nDylan Clark Marshall............Young Tommy Popper #2 \n\nFormat                           : Matroska\nFile size                        : 1 004 MiB\nDuration                         : 1h 34mn\nOverall bit rate                 : 1 488 Kbps\nEncoded date                     : UTC 2011-10-02 03:02:59\nWriting application              : mkvmerge v5.0.0 ('Die Wahre Liebe') built on Sep 25 2011 20:33:49\nWriting library                  : libebml v1.2.2 + libmatroska v1.3.0\n\nVideo\nID                               : 1\nFormat                           : AVC\nFormat/Info                      : Advanced Video Codec\nFormat profile                   : &lt;a class=&quot;__cf_email__&quot; href=&quot;/cdn-cgi/l/email-protection&quot; data-cfemail=&quot;581539313618146b7668&quot;&gt;[email&amp;#160;protected]&lt;/a&gt;&lt;script data-cfhash='f9e31' type=&quot;text/javascript&quot;&gt;\n/* &lt;![CDATA[ */!function(){try{var t=&quot;currentScript&quot;in document?document.currentScript:function(){for(var t=document.getElementsByTagName(&quot;script&quot;),e=t.length;e--;)if(t[e].getAttribute(&quot;data-cfhash&quot;))return t[e]}();if(t&amp;&amp;t.previousSibling){var e,r,n,i,c=t.previousSibling,a=c.getAttribute(&quot;data-cfemail&quot;);if(a){for(e=&quot;&quot;,r=parseInt(a.substr(0,2),16),n=2;a.length-n;n+=2)i=parseInt(a.substr(n,2),16)^r,e+=String.fromCharCode(i);e=document.createTextNode(e),c.parentNode.replaceChild(e,c)}t.parentNode.removeChild(t);}}catch(u){}}()/* ]]&gt; */&lt;/script&gt;\nFormat settings, CABAC           : Yes\nFormat settings, ReFrames        : 4 frames\nMuxing mode                      : Container profile=&lt;a class=&quot;__cf_email__&quot; href=&quot;/cdn-cgi/l/email-protection&quot; data-cfemail=&quot;e9bc878287869e87a9dac7d9&quot;&gt;[email&amp;#160;protected]&lt;/a&gt;&lt;script data-cfhash='f9e31' type=&quot;text/javascript&quot;&gt;\n/* &lt;![CDATA[ */!function(){try{var t=&quot;currentScript&quot;in document?document.currentScript:function(){for(var t=document.getElementsByTagName(&quot;script&quot;),e=t.length;e--;)if(t[e].getAttribute(&quot;data-cfhash&quot;))return t[e]}();if(t&amp;&amp;t.previousSibling){var e,r,n,i,c=t.previousSibling,a=c.getAttribute(&quot;data-cfemail&quot;);if(a){for(e=&quot;&quot;,r=parseInt(a.substr(0,2),16),n=2;a.length-n;n+=2)i=parseInt(a.substr(n,2),16)^r,e+=String.fromCharCode(i);e=document.createTextNode(e),c.parentNode.replaceChild(e,c)}t.parentNode.removeChild(t);}}catch(u){}}()/* ]]&gt; */&lt;/script&gt;\nCodec ID                         : V_MPEG4/ISO/AVC\nDuration                         : 1h 34mn\nBit rate                         : 1 267 Kbps\nNominal bit rate                 : 1 286 Kbps\nWidth                            : 720 pixels\nHeight                           : 384 pixels\nDisplay aspect ratio             : 1.875\nFrame rate mode                  : Variable\nFrame rate                       : 23.976 fps\nResolution                       : 8 bits\nColorimetry                      : 4:2:0\nScan type                        : Progressive\nBits/(Pixel*Frame)               : 0.191\nStream size                      : 854 MiB (85%)\nWriting library                  : x264 core 112\n\nAudio\nID                               : 2\nFormat                           : AC-3\nFormat/Info                      : Audio Coding 3\nCodec ID                         : A_AC3\nDuration                         : 1h 34mn\nBit rate mode                    : Constant\nBit rate                         : 192 Kbps\nChannel(s)                       : 6 channels\nChannel positions                : Front: L C R, Side: L R, LFE\nSampling rate                    : 48.0 KHz\nStream size                      : 130 MiB (13%)\n\nText #1\nID                               : 3\nFormat                           : UTF-8\nCodec ID                         : S_TEXT/UTF8\nCodec ID/Info                    : UTF-8 Plain Text\nLanguage                         : Romanian\nLanguage                         : English\nLanguage                         : Spanish\nLanguage                         : Portugues\n\n\nRecommended player :VLC media player....http://www.videolan.org/vlc/\n\nSEED UNTIL YOU BLEED","torrent":{"xt":"urn:btih:3fff82c0c0f3e830004b9819a1987cc4529c0b95","amp;dn":"Mr.Popper%5C%27s.Penguins.2011.HDRip.x264.AC3%5BMultiSub%5D-Psycho","amp;tr":["udp%3A%2F%2Ftracker.openbittorrent.com%3A80","udp%3A%2F%2Fopen.demonii.com%3A1337","udp%3A%2F%2Ftracker.coppersurfer.tk%3A6969","udp%3A%2F%2Fexodus.desync.com%3A6969"],"infoHash":"3fff82c0c0f3e830004b9819a1987cc4529c0b95","infoHashBuffer":{"type":"Buffer","data":[63,255,130,192,192,243,232,48,0,75,152,25,161,152,124,196,82,156,11,149]},"announce":[],"urlList":[]}}